<?xml version="1.0" encoding="UTF-8" standalone="no"?>
<svg
   version="1.0"
   width="316"
   height="316"
   viewBox="0 0 237 237"
   preserveAspectRatio="xMidYMid meet"
   id="svg37"
   sodipodi:docname="111.svg"
   inkscape:version="1.2.2 (732a01da63, 2022-12-09)"
   xmlns:inkscape="http://www.inkscape.org/namespaces/inkscape"
   xmlns:sodipodi="http://sodipodi.sourceforge.net/DTD/sodipodi-0.dtd"
   xmlns="http://www.w3.org/2000/svg"
   xmlns:svg="http://www.w3.org/2000/svg">
  <defs
     id="defs41" />
  <sodipodi:namedview
     id="namedview39"
     pagecolor="#ffffff"
     bordercolor="#666666"
     borderopacity="1.0"
     inkscape:pageshadow="2"
     inkscape:pageopacity="0.0"
     inkscape:pagecheckerboard="0"
     inkscape:document-units="px"
     showgrid="false"
     units="px"
     inkscape:showpageshadow="false"
     inkscape:zoom="1.3504346"
     inkscape:cx="225.85322"
     inkscape:cy="156.9865"
     inkscape:window-width="1366"
     inkscape:window-height="705"
     inkscape:window-x="-8"
     inkscape:window-y="-8"
     inkscape:window-maximized="1"
     inkscape:current-layer="svg37"
     inkscape:deskcolor="#d1d1d1" />
  <g
     transform="matrix(0.02240833,0,0,-0.02203784,-32.692947,267.29918)"
     fill="#050b5c"
     stroke="none"
     id="g35"
     style="stroke-width:4.49998;fill:#00225b;fill-opacity:1">
    <path
       d="m 6585,11999 c -77,-17 -161,-34 -188,-39 -48,-9 -73,-16 -163,-44 -29,-9 -60,-16 -70,-16 -11,0 -32,-7 -48,-15 -15,-8 -36,-15 -45,-15 -18,0 -98,-25 -149,-46 -18,-8 -40,-14 -48,-14 -9,0 -30,-6 -47,-14 -18,-7 -52,-21 -77,-31 -152,-59 -142,-52 -131,-90 21,-69 41,-142 47,-175 3,-19 10,-39 14,-45 4,-5 10,-28 14,-50 4,-22 11,-51 16,-65 4,-14 15,-50 24,-80 8,-30 23,-84 33,-119 19,-67 34,-82 64,-63 10,7 24,12 31,12 15,0 125,44 135,54 3,3 14,6 24,6 10,0 33,6 51,14 52,22 226,76 245,76 10,0 31,7 47,15 15,8 36,15 45,15 10,0 37,6 62,14 212,66 314,66 544,-1 28,-7 73,-20 100,-28 118,-33 262,-78 293,-91 18,-8 41,-14 50,-14 10,0 22,-4 28,-8 9,-8 87,-39 157,-63 42,-15 57,-5 57,38 0,12 4,24 9,27 5,4 12,25 16,49 4,23 12,60 20,82 7,22 21,69 30,105 10,36 24,85 31,110 6,25 22,79 33,120 12,41 21,81 21,88 0,12 -44,35 -125,65 -22,8 -58,21 -80,30 -80,30 -231,77 -247,77 -9,0 -29,7 -44,15 -16,8 -39,15 -52,15 -13,0 -32,5 -43,10 -10,6 -38,15 -61,20 -24,5 -74,17 -113,25 -116,27 -354,75 -363,74 -4,0 -70,-14 -147,-30 z"
       id="path9"
       style="stroke-width:4.49998;fill:#00225b;fill-opacity:1" />
    <path
       d="m 5295,11583 c -16,-9 -37,-20 -45,-25 -8,-4 -22,-11 -30,-14 -26,-10 -212,-104 -275,-139 -33,-18 -76,-42 -95,-52 -62,-34 -114,-64 -142,-81 -129,-80 -289,-183 -328,-212 -26,-19 -58,-42 -70,-50 -77,-52 -349,-263 -414,-321 l -40,-37 39,-45 c 42,-48 119,-134 292,-329 58,-65 111,-118 118,-118 7,0 30,16 51,35 95,87 545,413 624,453 14,6 45,25 70,42 25,16 54,34 66,39 11,5 50,27 85,48 35,21 126,69 202,107 76,38 137,74 137,82 0,8 -12,53 -26,101 -15,49 -28,99 -31,113 -3,14 -18,70 -34,125 -17,55 -37,125 -45,155 -35,126 -39,135 -59,137 -11,2 -33,-5 -50,-14 z"
       id="path11"
       style="stroke-width:4.49998;fill:#00225b;fill-opacity:1" />
    <path
       d="m 8105,11591 c -3,-5 -10,-29 -15,-53 -5,-24 -16,-68 -24,-98 -8,-30 -20,-75 -26,-100 -6,-25 -15,-52 -20,-61 -5,-9 -12,-34 -16,-55 -3,-22 -19,-79 -35,-129 -46,-142 -51,-132 109,-211 75,-38 169,-88 208,-111 39,-24 74,-43 77,-43 3,0 32,-17 64,-38 32,-22 70,-45 86,-53 79,-40 553,-387 612,-447 17,-17 37,-32 46,-32 14,0 67,56 209,221 30,35 84,95 118,134 35,38 77,86 93,106 l 28,36 -41,34 c -23,19 -58,48 -77,64 -30,26 -173,139 -206,163 -60,43 -111,81 -167,122 -37,28 -69,50 -72,50 -3,0 -33,19 -68,43 -83,55 -81,53 -238,147 -170,102 -144,88 -410,225 -169,87 -222,107 -235,86 z"
       id="path13"
       style="stroke-width:4.49998;fill:#00225b;fill-opacity:1" />
    <path
       d="m 6723,11038 c -23,-30 -44,-129 -44,-211 -1,-48 -6,-90 -11,-93 -6,-4 -32,16 -58,44 -98,105 -229,160 -354,148 -96,-9 -134,-17 -146,-31 -8,-10 0,-17 36,-29 26,-9 55,-16 63,-16 22,-1 174,-78 241,-122 30,-20 70,-53 89,-72 29,-30 32,-36 18,-42 -10,-3 -23,-2 -30,4 -15,13 -78,36 -171,64 -57,17 -90,19 -200,16 -125,-3 -134,-5 -199,-37 -37,-19 -83,-51 -102,-72 -40,-45 -46,-66 -12,-47 16,9 98,12 307,12 h 285 l 45,-27 c 25,-15 41,-27 35,-27 -72,-1 -184,-24 -237,-48 -87,-39 -197,-162 -145,-162 7,0 17,4 23,9 21,20 194,70 267,77 67,6 77,5 77,-9 0,-9 -13,-23 -29,-32 -43,-22 -88,-94 -96,-154 -4,-28 -4,-51 -1,-51 4,0 22,15 40,33 62,60 96,88 139,108 23,11 50,25 59,30 23,12 24,12 42,-7 14,-14 16,-69 16,-457 1,-334 4,-446 13,-457 12,-15 103,-80 112,-80 3,0 5,222 5,494 0,553 -2,535 66,503 19,-10 39,-17 45,-17 15,0 76,-46 131,-98 25,-24 51,-41 56,-38 16,10 3,77 -24,118 -13,20 -39,49 -59,65 -19,15 -35,34 -35,42 0,33 217,-10 338,-66 41,-19 48,-13 28,24 -22,43 -85,96 -150,127 -47,22 -160,45 -231,46 -5,0 10,12 35,27 l 45,27 h 285 c 211,0 291,-3 308,-12 32,-18 27,-2 -14,46 -75,88 -239,133 -406,112 -86,-10 -135,-23 -181,-46 -16,-8 -36,-14 -46,-14 -9,0 -26,-7 -37,-15 -20,-13 -34,-11 -34,5 0,14 54,61 124,107 77,51 187,101 279,128 46,13 56,19 47,30 -6,7 -27,16 -48,19 -200,34 -322,-2 -448,-131 -33,-34 -64,-60 -67,-56 -4,3 -7,49 -8,102 0,134 -43,251 -76,209 z"
       id="path15"
       style="stroke-width:4.49998;fill:#00225b;fill-opacity:1" />
    <path
       d="m 7857,10684 c -3,-4 0,-22 8,-41 34,-81 12,-185 -54,-250 -26,-27 -128,-83 -150,-83 -5,0 -14,-7 -21,-15 -7,-8 -19,-15 -26,-15 -45,0 -270,-188 -370,-309 -30,-36 -60,-73 -67,-81 -33,-39 -68,-93 -107,-163 -23,-43 -48,-77 -57,-77 -8,0 -35,19 -59,43 -25,23 -50,42 -56,42 -8,0 -11,-43 -10,-140 1,-122 3,-141 19,-153 21,-15 22,-79 2,-140 -7,-20 -15,-64 -18,-97 -4,-42 -10,-61 -21,-63 -8,-1 -40,21 -70,49 -96,89 -323,223 -415,245 -16,4 -35,10 -40,15 -6,4 -31,11 -55,15 -25,3 -70,13 -100,20 -74,19 -331,19 -419,-1 -36,-8 -93,-19 -126,-24 -84,-13 -171,-35 -350,-87 -266,-79 -422,-99 -533,-69 -66,18 -151,65 -187,105 -19,21 -14,46 23,115 12,23 16,58 16,150 v 120 l -40,73 c -50,94 -64,102 -116,66 -105,-73 -178,-218 -178,-355 0,-90 57,-227 128,-305 37,-41 142,-124 157,-124 4,0 26,-9 49,-19 84,-39 128,-46 279,-45 134,0 147,-1 147,-18 0,-9 -13,-32 -28,-50 -34,-40 -117,-175 -127,-209 -4,-13 -14,-33 -21,-44 -8,-11 -14,-29 -14,-42 0,-12 -4,-24 -9,-27 -5,-4 -14,-28 -20,-54 -6,-26 -18,-69 -26,-97 -8,-27 -20,-70 -26,-95 -7,-25 -18,-59 -25,-77 -8,-17 -14,-38 -14,-47 0,-8 -6,-30 -14,-48 -8,-18 -21,-49 -28,-68 -77,-204 -208,-377 -358,-471 -162,-102 -398,-124 -565,-52 -169,72 -268,194 -310,381 -18,80 -18,86 0,180 34,182 101,318 210,428 63,64 131,102 223,125 47,12 61,11 125,-5 151,-39 251,-146 270,-287 10,-72 -2,-81 -88,-62 -113,24 -309,1 -365,-42 -8,-7 -23,-15 -32,-18 -26,-9 -22,-43 8,-64 37,-26 64,-52 64,-62 0,-5 -21,-23 -47,-40 -95,-61 -129,-100 -103,-116 16,-10 119,-35 145,-35 30,0 55,-10 55,-21 0,-5 -11,-33 -25,-61 -14,-29 -23,-58 -21,-65 8,-20 149,-16 226,6 182,53 279,147 376,366 14,32 18,67 17,175 0,132 -1,137 -33,204 -69,144 -149,229 -273,291 -67,33 -78,41 -74,59 37,148 40,176 24,251 -16,72 -65,176 -86,183 -7,2 -11,-16 -11,-50 0,-30 -11,-86 -24,-127 -45,-138 -126,-223 -286,-302 -157,-78 -288,-201 -382,-360 -31,-51 -79,-173 -88,-219 -5,-25 -13,-63 -19,-85 -16,-60 -14,-256 3,-307 8,-24 17,-58 21,-77 4,-19 18,-55 32,-80 39,-73 32,-85 -57,-92 -130,-11 -240,-89 -308,-218 -48,-90 -39,-98 53,-50 42,21 84,39 94,39 9,0 21,4 26,9 18,16 128,31 224,31 114,-1 188,-15 296,-59 177,-72 196,-76 370,-76 149,0 166,2 244,28 101,34 143,55 236,115 129,84 239,209 304,345 15,32 29,47 39,45 9,-2 32,-35 52,-73 105,-207 277,-346 535,-433 75,-25 91,-27 260,-27 199,0 224,5 341,70 227,127 344,384 290,635 -23,107 -79,214 -150,284 -56,57 -55,69 8,101 39,20 116,90 148,134 35,49 81,149 75,165 -9,22 -55,20 -119,-4 -69,-27 -97,-40 -131,-63 -45,-30 -57,-17 -57,60 0,80 -20,171 -45,210 l -18,27 -34,-39 c -49,-57 -78,-112 -98,-184 -7,-25 -17,-47 -24,-49 -6,-2 -24,11 -39,29 -81,98 -194,178 -211,151 -15,-25 -1,-155 26,-225 14,-37 22,-71 19,-74 -3,-4 -45,-2 -93,3 -93,11 -213,-2 -220,-22 -9,-26 143,-164 180,-164 7,0 23,-10 37,-21 24,-19 24,-21 7,-32 -10,-7 -45,-29 -77,-49 -58,-38 -147,-139 -136,-156 10,-16 120,-22 211,-11 49,5 92,6 97,1 4,-4 2,-26 -6,-47 -38,-110 -48,-223 -21,-245 28,-23 138,65 205,164 32,47 70,148 70,186 1,66 38,63 101,-8 49,-55 74,-109 89,-190 19,-107 -23,-232 -108,-316 -59,-60 -101,-81 -193,-101 -93,-19 -120,-19 -227,1 -98,18 -146,37 -265,101 -30,16 -136,118 -174,168 -34,44 -81,142 -107,223 -23,72 -24,308 -2,371 9,24 16,52 16,62 0,53 116,269 190,356 135,156 278,246 495,309 87,25 343,26 440,1 113,-29 231,-78 290,-119 148,-105 269,-240 333,-373 51,-103 69,-237 53,-380 -20,-182 -82,-307 -236,-480 -98,-110 -133,-160 -174,-247 -60,-129 -78,-205 -90,-378 l -6,-95 H 4450 2575 l 2,35 c 2,51 41,223 71,315 5,17 18,59 27,95 10,36 33,110 52,165 19,55 41,118 48,140 8,22 23,65 35,95 12,30 25,66 29,80 5,14 20,51 35,81 14,31 26,59 26,63 0,4 20,48 45,98 25,50 45,94 45,99 0,4 13,31 30,59 34,58 38,88 13,96 -19,6 -31,11 -105,43 -26,12 -53,21 -60,21 -8,0 -18,4 -23,9 -6,5 -35,19 -65,31 -30,12 -68,28 -85,35 -16,7 -66,28 -110,46 -44,18 -90,39 -102,47 -13,8 -29,12 -37,9 -15,-6 -91,-157 -161,-319 -7,-18 -22,-53 -33,-78 -21,-47 -49,-119 -101,-260 -18,-47 -39,-100 -47,-118 -7,-18 -14,-38 -14,-45 0,-15 -58,-202 -76,-245 -8,-18 -14,-43 -14,-55 0,-12 -6,-39 -14,-62 -14,-40 -32,-114 -60,-250 -8,-38 -22,-104 -31,-145 -14,-68 -15,-282 -13,-2160 l 3,-2085 h 4855 4855 l 3,2085 c 2,1558 0,2096 -9,2130 -6,25 -17,77 -24,115 -7,39 -21,102 -30,140 -9,39 -21,89 -26,113 -4,23 -13,51 -19,61 -5,11 -10,28 -10,39 0,11 -12,55 -26,98 -14,43 -30,95 -34,114 -8,33 -74,220 -120,340 -37,98 -51,134 -60,163 -5,16 -13,34 -18,40 -5,7 -13,23 -17,37 -4,14 -38,89 -76,167 -38,77 -69,146 -69,152 0,6 -9,15 -19,21 -15,7 -37,2 -98,-25 -105,-48 -110,-50 -173,-75 -30,-11 -66,-26 -80,-32 -14,-6 -40,-17 -57,-24 -18,-8 -48,-20 -65,-28 -55,-24 -102,-44 -120,-50 -27,-8 -22,-32 31,-141 27,-55 55,-116 64,-135 8,-19 26,-60 40,-90 41,-89 92,-218 133,-340 14,-41 29,-84 33,-95 5,-11 15,-45 24,-75 9,-30 28,-93 43,-140 40,-132 84,-322 87,-375 l 2,-30 -1879,-3 c -1869,-2 -1880,-2 -1901,18 -25,24 -77,126 -99,194 -35,110 -16,278 47,403 35,67 72,174 97,270 16,65 20,113 20,245 0,173 4,149 -72,443 -28,111 -30,394 -3,505 30,125 73,234 151,380 38,71 155,217 236,296 210,205 465,295 704,250 49,-10 103,-22 119,-28 52,-19 119,-48 135,-58 8,-6 24,-14 35,-19 81,-37 220,-193 277,-311 85,-176 87,-409 6,-541 -33,-54 -111,-124 -171,-153 -34,-16 -62,-20 -152,-20 -104,-1 -113,1 -164,29 -66,36 -151,118 -151,145 0,18 7,20 78,20 71,0 112,9 202,42 38,14 141,80 159,102 27,32 -88,76 -201,76 -90,0 -109,10 -89,42 41,64 62,116 76,180 12,57 12,74 2,80 -17,11 -30,10 -52,-6 -11,-7 -32,-16 -46,-19 -14,-4 -58,-34 -97,-67 -44,-36 -74,-55 -76,-48 -2,7 -10,38 -19,68 -9,30 -19,66 -23,80 -4,14 -17,41 -29,60 -12,19 -24,43 -28,53 -11,31 -32,20 -65,-34 -12,-20 -22,-45 -22,-56 0,-10 -5,-24 -12,-31 -6,-6 -14,-42 -17,-79 -7,-82 -20,-88 -76,-38 -52,46 -141,92 -185,97 l -35,3 1,-46 c 2,-48 49,-160 90,-215 13,-17 21,-34 17,-37 -3,-4 -39,-7 -80,-7 -98,0 -223,-41 -223,-74 1,-26 182,-126 229,-126 9,0 22,-5 29,-12 9,-9 -4,-28 -53,-80 -64,-68 -121,-160 -110,-178 17,-28 182,0 258,43 50,28 127,89 137,107 18,33 53,25 75,-17 38,-72 143,-169 237,-218 48,-25 101,-45 117,-45 41,0 81,-17 81,-34 0,-15 -76,-53 -200,-101 -73,-28 -100,-39 -201,-88 -53,-26 -100,-47 -105,-47 -5,0 -22,-7 -39,-16 -42,-23 -208,-23 -250,0 -16,9 -35,16 -40,16 -6,0 -34,21 -63,46 -29,25 -57,42 -63,38 -18,-10 -5,-123 19,-169 21,-42 58,-80 105,-110 15,-9 27,-22 27,-27 0,-6 -18,-37 -40,-68 -49,-73 -67,-115 -85,-204 -19,-89 -19,-133 0,-221 49,-234 232,-402 460,-421 197,-17 387,88 483,266 8,14 19,59 26,100 22,142 -22,294 -113,388 -42,42 -71,54 -71,29 0,-17 -28,-75 -39,-82 -5,-2 -30,10 -56,28 -91,62 -105,69 -111,52 -3,-8 -1,-49 4,-92 6,-42 8,-81 5,-86 -3,-5 -29,-6 -58,-2 -29,3 -56,2 -59,-3 -7,-12 26,-101 60,-160 15,-26 51,-70 80,-97 30,-28 54,-56 54,-61 0,-20 -34,-40 -97,-59 -59,-17 -65,-17 -124,0 -77,21 -127,52 -166,102 -65,82 -86,161 -70,265 20,136 165,284 377,385 123,58 158,73 172,73 8,0 23,7 34,15 10,8 25,15 31,15 12,0 82,30 183,78 19,9 54,29 78,44 24,15 52,28 64,28 17,0 19,-4 13,-27 -4,-16 -10,-117 -12,-227 -4,-162 -2,-207 11,-247 9,-26 16,-55 16,-63 0,-8 6,-30 14,-48 79,-184 106,-263 106,-311 0,-94 -69,-217 -148,-263 -59,-35 -46,-48 43,-41 96,7 171,43 242,115 l 54,56 27,-17 c 79,-50 161,-92 234,-120 82,-30 84,-30 283,-31 199,0 201,0 310,34 61,18 117,37 125,41 91,48 341,61 455,25 66,-21 163,-65 171,-78 3,-4 9,-8 15,-8 17,0 9,41 -22,107 -31,67 -110,156 -160,180 -61,30 -119,53 -134,53 -27,0 -28,26 -3,72 43,76 58,140 58,242 0,52 -4,98 -10,101 -5,3 -10,15 -10,26 0,41 -71,158 -129,211 -70,65 -186,124 -260,132 -81,8 -89,21 -60,93 21,50 24,74 23,173 0,93 -4,123 -20,160 l -21,44 -45,-45 c -41,-41 -96,-138 -113,-196 -9,-31 -30,-29 -52,4 -52,78 -190,189 -210,169 -4,-4 -8,-41 -7,-81 0,-71 12,-127 39,-191 8,-18 11,-35 8,-38 -11,-10 -48,-7 -61,6 -13,13 -186,24 -227,14 -15,-4 -25,-13 -25,-25 0,-37 129,-159 193,-184 9,-3 17,-16 17,-27 0,-11 -8,-23 -17,-26 -10,-3 -25,-10 -33,-15 -8,-5 -25,-13 -38,-19 -27,-11 -119,-96 -133,-122 -7,-14 -3,-20 20,-33 36,-18 191,-21 240,-4 46,16 57,2 36,-47 -21,-49 -55,-181 -55,-214 0,-52 14,-58 72,-27 53,27 137,100 165,144 26,39 28,37 79,-87 30,-72 87,-150 110,-150 7,0 23,21 35,48 19,40 22,65 23,167 0,125 -2,133 -56,241 -29,56 -19,68 51,61 151,-13 255,-127 254,-278 0,-53 -6,-78 -32,-131 -88,-178 -265,-299 -477,-328 -265,-36 -539,111 -670,360 -34,64 -56,121 -79,205 -20,74 -16,320 8,430 24,113 38,168 52,200 7,17 16,41 19,55 6,29 59,180 68,196 4,6 11,28 17,50 21,89 51,159 68,159 6,0 28,-16 50,-35 158,-146 367,-172 514,-64 27,19 49,44 49,53 0,20 -68,87 -120,118 -59,35 -161,57 -235,50 -62,-6 -65,-5 -96,25 -78,79 -138,177 -247,408 -97,205 -268,376 -464,467 -110,51 -238,83 -368,92 l -85,6 -3,30 c -2,17 -10,54 -18,83 -17,58 -76,128 -131,156 -36,18 -37,18 -46,10 z M 3508,5936 c 1,-116 -2,-204 -7,-209 -5,-5 -57,-9 -116,-8 -69,1 -112,-2 -121,-10 -12,-10 -14,-108 -14,-619 0,-511 2,-609 14,-619 9,-8 51,-11 119,-10 58,1 110,-2 116,-5 18,-11 15,-390 -3,-405 -16,-13 -909,-12 -922,2 -10,10 -16,293 -8,360 l 6,47 h 111 c 62,0 118,4 125,8 18,12 18,1232 -1,1244 -6,4 -62,8 -124,8 h -111 l -6,38 c -8,51 -2,355 8,370 6,9 113,12 469,10 l 462,-3 z m 1361,190 c 8,-9 11,-73 9,-207 l -3,-194 -123,-3 c -121,-3 -123,-3 -132,-28 -6,-15 -10,-257 -10,-604 0,-347 4,-589 10,-604 9,-25 11,-25 132,-28 l 123,-3 2,-190 c 2,-109 -1,-196 -7,-205 -14,-23 -926,-23 -940,0 -11,18 -13,369 -2,387 4,7 50,12 124,15 64,1 119,6 123,10 4,4 7,282 7,619 -1,495 -3,614 -14,620 -7,5 -63,9 -124,9 -93,0 -113,3 -118,16 -3,9 -6,96 -6,194 0,149 3,181 16,194 14,14 70,16 468,16 373,0 456,-2 465,-14 z m 1366,-9 c 8,-13 26,-57 40,-98 14,-41 30,-83 34,-94 5,-11 23,-60 41,-110 17,-49 38,-105 46,-123 8,-18 14,-37 14,-43 0,-6 6,-25 14,-42 8,-18 16,-41 19,-52 3,-11 22,-65 42,-120 20,-55 41,-116 47,-135 5,-19 13,-39 16,-45 4,-5 25,-64 48,-130 126,-362 127,-366 142,-363 14,3 37,60 107,263 34,98 49,138 56,150 4,6 10,26 14,45 4,19 11,40 15,45 4,6 13,26 18,45 6,19 26,78 45,130 19,52 44,124 56,160 12,36 26,74 31,85 5,11 19,49 31,85 11,36 27,79 34,95 7,17 29,76 48,133 19,56 42,111 52,122 18,19 32,20 471,20 441,0 454,-1 464,-20 7,-12 9,-89 8,-207 l -3,-188 -120,-5 c -66,-3 -126,-9 -132,-13 -10,-6 -13,-141 -13,-617 0,-476 3,-611 13,-617 6,-4 66,-10 132,-13 l 120,-5 3,-192 c 2,-164 0,-193 -14,-207 -13,-14 -60,-16 -384,-16 -217,0 -379,4 -395,10 l -25,10 2,197 3,198 52,3 c 28,2 56,9 62,16 15,18 11,1045 -4,1049 -5,1 -21,-32 -35,-73 -14,-41 -28,-79 -32,-85 -3,-5 -10,-26 -16,-45 -6,-19 -27,-80 -47,-135 -20,-55 -45,-127 -56,-160 -11,-33 -24,-69 -29,-80 -5,-11 -19,-49 -31,-85 -11,-36 -27,-79 -35,-97 -8,-17 -14,-35 -14,-39 0,-8 -56,-165 -71,-199 -5,-11 -20,-54 -34,-95 -29,-87 -77,-223 -93,-263 -7,-16 -12,-32 -12,-37 0,-25 -37,-81 -55,-86 -40,-10 -384,0 -395,12 -10,10 -46,107 -94,249 -8,22 -28,78 -46,125 -17,47 -35,99 -41,115 -5,17 -13,39 -18,50 -6,11 -21,54 -35,95 -28,84 -74,217 -83,240 -15,36 -65,178 -73,205 -10,34 -37,110 -49,140 -4,11 -15,36 -23,55 -8,19 -25,70 -38,112 -48,153 -50,134 -50,-442 v -530 l 23,-5 c 12,-2 40,-6 62,-7 l 40,-3 3,-198 2,-197 -25,-10 c -16,-6 -179,-10 -399,-10 -305,0 -376,3 -385,14 -8,9 -11,73 -9,207 l 3,194 120,5 120,5 v 625 625 l -120,5 -120,5 -3,195 c -1,107 0,200 2,207 4,10 101,13 465,13 h 461 z m 4123,15 c 9,-7 12,-55 10,-208 l -3,-199 -93,-3 c -72,-2 -94,-6 -99,-18 -5,-14 15,-69 69,-194 11,-25 23,-54 28,-65 4,-11 18,-45 30,-75 12,-30 32,-77 45,-105 12,-27 32,-75 44,-105 12,-30 26,-64 31,-75 8,-17 30,-69 59,-140 5,-11 30,-72 56,-135 25,-63 53,-128 60,-145 8,-16 27,-61 44,-100 17,-38 35,-77 40,-85 6,-12 33,-16 120,-18 l 111,-3 -2,-207 -3,-207 h -465 -465 l -3,199 c -1,116 2,204 7,209 5,5 57,9 115,8 82,-2 107,1 112,12 6,16 -92,248 -109,259 -7,4 -188,8 -404,8 h -392 l -20,-26 c -12,-15 -21,-32 -21,-40 0,-7 -6,-25 -14,-41 -8,-15 -19,-39 -24,-53 -6,-14 -18,-42 -28,-63 -9,-21 -13,-41 -10,-45 4,-4 58,-9 119,-12 l 112,-5 3,-194 c 2,-134 -1,-198 -9,-207 -9,-12 -92,-14 -464,-14 -372,0 -455,2 -464,14 -8,9 -11,73 -9,207 l 3,194 114,5 114,5 18,32 c 10,17 34,71 54,120 21,48 43,102 50,118 28,66 36,85 85,205 57,138 59,143 90,215 31,72 34,77 90,215 29,69 59,140 66,157 8,18 21,47 29,65 7,18 21,50 30,71 9,20 13,42 10,47 -3,6 -48,10 -100,10 h -94 l -6,33 c -4,18 -5,108 -3,200 2,136 6,170 18,177 18,12 1299,13 1318,2 z"
       id="path17"
       style="stroke-width:4.49998;fill:#00225b;fill-opacity:1" />
    <path
       d="m 9671,5653 c -13,-36 -36,-92 -67,-160 -8,-17 -14,-33 -14,-36 0,-5 -25,-62 -70,-162 -26,-57 -48,-124 -43,-129 11,-10 431,-7 438,4 3,5 -3,30 -15,54 -11,25 -20,47 -20,50 0,2 -14,35 -31,73 -40,88 -48,107 -100,235 -24,59 -49,108 -54,108 -6,0 -17,-17 -24,-37 z"
       id="path19"
       style="stroke-width:4.49998;fill:#00225b;fill-opacity:1" />
    <path
       d="m 5235,10471 c -212,-66 -344,-236 -345,-442 0,-207 137,-383 351,-448 46,-14 176,-14 236,0 94,23 183,51 188,60 4,5 16,9 28,9 12,1 40,9 62,20 22,11 46,19 53,20 7,0 20,4 30,9 49,25 95,41 118,41 13,0 41,7 61,15 26,11 74,15 178,15 104,0 152,-4 178,-15 20,-8 48,-15 61,-15 23,0 69,-16 119,-42 10,-5 22,-6 27,-3 6,4 10,53 10,110 0,104 0,105 -27,119 -16,7 -65,23 -110,35 -116,30 -401,30 -513,1 -41,-11 -84,-24 -95,-29 -11,-5 -42,-17 -70,-26 -81,-27 -159,-58 -170,-67 -5,-4 -18,-8 -30,-8 -11,0 -33,-8 -50,-17 -23,-13 -57,-17 -145,-17 -112,-1 -116,0 -160,29 -24,17 -58,51 -75,75 -27,41 -30,52 -30,127 0,103 10,116 62,84 102,-60 121,-65 248,-66 h 120 l -3,23 c -1,13 -11,35 -22,49 -10,13 -17,30 -14,37 5,13 60,36 87,36 9,0 32,10 52,21 32,19 34,23 21,38 -8,9 -40,29 -71,45 -31,15 -59,35 -62,43 -3,8 8,29 27,48 19,19 30,40 27,48 -18,47 -246,71 -352,38 z"
       id="path21"
       style="stroke-width:4.49998;fill:#00225b;fill-opacity:1" />
    <path
       d="m 3554,10370 c -118,-115 -167,-168 -264,-280 -36,-41 -80,-92 -99,-113 -19,-20 -42,-48 -50,-61 -9,-13 -36,-48 -60,-77 -24,-30 -52,-65 -62,-79 -10,-14 -38,-50 -61,-80 -24,-30 -54,-71 -67,-90 -13,-19 -43,-62 -66,-95 -52,-74 -222,-347 -237,-380 -16,-36 -6,-48 58,-74 33,-12 74,-29 91,-37 18,-8 50,-22 70,-31 21,-9 50,-22 65,-30 14,-7 31,-13 36,-13 6,0 41,-14 79,-31 83,-37 117,-52 165,-72 l 37,-16 37,62 c 128,214 418,615 500,692 5,6 39,44 74,85 35,41 116,128 180,193 63,65 117,120 118,122 6,6 -12,31 -74,101 -33,38 -99,113 -147,166 -47,54 -101,114 -120,135 -19,21 -48,54 -64,73 l -31,34 z"
       id="path23"
       style="stroke-width:4.49998;fill:#00225b;fill-opacity:1" />
    <path
       d="m 9733,10383 c -44,-49 -93,-103 -109,-122 -16,-19 -43,-51 -61,-70 -215,-242 -202,-205 -103,-309 46,-48 99,-102 118,-121 19,-18 59,-63 90,-100 31,-36 71,-82 88,-101 46,-49 180,-217 212,-265 15,-22 56,-80 92,-130 36,-49 84,-119 105,-154 22,-35 48,-75 57,-90 10,-14 22,-35 28,-46 24,-50 59,-71 75,-45 3,6 15,10 26,10 11,0 37,9 57,20 55,29 147,70 159,70 6,0 38,14 71,30 34,17 64,30 67,30 4,0 21,6 38,14 18,8 58,24 91,37 32,13 61,29 63,36 5,13 -12,54 -45,105 -9,15 -37,60 -61,100 -46,75 -124,195 -139,213 -4,6 -23,33 -42,60 -46,67 -204,278 -254,339 -49,58 -233,272 -255,296 -59,64 -277,280 -282,280 -4,0 -43,-39 -86,-87 z"
       id="path25"
       style="stroke-width:4.49998;fill:#00225b;fill-opacity:1" />
    <path
       d="m 6670,8461 c 0,-245 2,-290 14,-285 21,8 52,106 66,205 15,102 2,220 -34,308 -42,103 -46,85 -46,-228 z"
       id="path27"
       style="stroke-width:4.49998;fill:#00225b;fill-opacity:1" />
    <path
       d="m 2854,2522 c -92,-31 -154,-95 -168,-174 -7,-39 -15,-44 -81,-50 -25,-3 -30,-7 -30,-28 0,-22 5,-26 47,-30 26,-3 51,-9 55,-14 4,-4 9,-128 10,-274 1,-147 3,-272 3,-278 0,-18 29,-25 51,-14 18,10 19,24 19,270 0,144 4,270 10,284 l 10,26 h 237 c 131,0 244,-4 252,-9 9,-6 16,-32 19,-70 4,-51 2,-62 -13,-67 -10,-4 -25,-2 -34,4 -96,70 -234,47 -294,-48 -22,-35 -32,-126 -18,-176 33,-122 192,-179 293,-104 48,35 63,25 66,-47 3,-66 17,-82 53,-63 18,10 19,24 19,284 0,221 3,276 14,285 9,8 60,11 157,9 l 144,-3 v -40 -40 l -50,-5 c -57,-7 -89,-24 -104,-57 -19,-41 -13,-71 22,-106 28,-28 32,-37 24,-55 -6,-12 -14,-22 -18,-22 -12,0 -39,-55 -39,-80 0,-34 36,-94 68,-112 23,-14 53,-18 125,-18 89,0 96,1 137,31 42,30 44,31 57,13 8,-11 12,-27 10,-36 -7,-26 16,-50 44,-46 l 24,3 5,275 c 3,151 9,281 13,288 5,8 34,12 82,12 63,0 76,-3 85,-19 6,-12 10,-123 10,-289 v -270 l 28,-5 c 51,-10 52,-6 52,288 0,222 3,275 14,284 9,7 42,11 88,9 l 73,-3 5,-285 c 3,-157 7,-286 8,-288 1,-2 19,-2 40,0 l 37,3 5,285 5,285 h 250 250 l 3,-64 c 4,-83 -2,-100 -26,-78 -24,22 -97,47 -137,47 -40,0 -114,-30 -137,-56 -21,-25 -58,-118 -58,-149 0,-37 38,-125 63,-146 27,-24 71,-44 115,-52 35,-7 116,15 143,39 29,26 38,16 41,-48 l 3,-63 38,-3 c 20,-2 38,-2 39,0 1,2 5,131 8,288 l 5,285 76,3 c 55,2 79,-1 87,-11 8,-9 13,-101 14,-287 l 3,-274 32,-7 c 21,-4 36,-2 43,6 6,7 11,124 12,291 l 3,279 294,3 c 208,2 298,-1 307,-9 17,-14 19,-110 2,-127 -8,-8 -61,-12 -171,-12 -141,0 -165,-2 -201,-21 -64,-31 -86,-71 -86,-154 v -69 l 46,-43 47,-43 h 79 c 70,0 83,3 113,26 48,36 70,105 54,166 -18,65 -10,78 50,78 79,0 81,-5 81,-195 0,-146 2,-165 18,-173 9,-5 28,-6 42,-2 l 25,6 5,284 c 3,157 7,286 8,288 1,1 67,2 147,2 168,0 170,-1 156,-91 -10,-62 -38,-92 -104,-110 -59,-17 -66,-28 -54,-91 13,-73 38,-117 87,-155 40,-32 45,-33 137,-33 80,0 99,3 120,20 14,11 36,20 49,20 18,0 24,-7 29,-32 3,-18 5,-42 4,-53 -5,-45 1,-55 29,-55 51,0 52,4 52,286 0,144 3,269 6,278 5,13 22,16 80,16 71,0 75,-1 84,-26 6,-14 10,-140 10,-284 0,-246 1,-260 19,-270 22,-11 50,-4 52,14 1,6 2,128 3,272 1,205 4,264 15,277 11,15 37,17 171,17 125,0 160,-3 170,-14 8,-11 11,-54 8,-144 -3,-111 -6,-133 -22,-151 -41,-45 -116,-7 -116,60 0,22 -5,29 -30,34 -40,9 -50,0 -50,-42 0,-39 30,-95 63,-118 34,-24 148,-20 181,6 48,38 56,67 56,212 0,90 4,137 12,145 7,7 38,12 70,12 46,0 59,-4 68,-19 6,-12 10,-123 10,-289 v -270 l 30,-4 c 16,-3 34,0 40,6 6,6 10,112 10,288 v 278 l 23,5 c 12,3 52,5 87,3 l 65,-3 5,-285 c 3,-157 7,-286 8,-288 1,-2 19,-2 40,0 l 37,3 3,280 c 2,208 5,281 15,287 16,10 138,10 154,0 10,-6 13,-79 15,-287 l 3,-279 29,-7 c 55,-15 55,-12 58,295 l 3,281 207,3 207,2 16,-24 c 20,-31 12,-64 -18,-70 -12,-3 -58,-12 -101,-20 -83,-16 -115,-36 -142,-88 -28,-54 -9,-167 32,-191 21,-12 17,-51 -8,-82 -17,-22 -22,-41 -22,-90 0,-67 18,-102 72,-137 35,-23 124,-24 162,-2 38,23 61,13 54,-24 -7,-34 14,-55 48,-50 l 23,3 3,232 c 2,224 2,232 -18,243 -17,9 -25,6 -45,-14 -14,-14 -25,-29 -25,-33 0,-17 -60,-43 -99,-43 -33,0 -49,7 -76,32 -55,49 -48,118 18,168 12,9 56,16 120,19 l 102,6 3,70 c 2,38 8,75 14,82 8,10 65,13 244,13 266,0 254,4 254,-90 0,-57 -14,-70 -52,-47 -46,30 -99,38 -157,22 -79,-21 -120,-74 -128,-165 -17,-183 149,-282 300,-177 25,17 37,-5 37,-69 0,-50 1,-52 30,-56 16,-3 34,0 40,6 6,6 10,73 10,166 v 157 l 33,38 c 31,35 38,39 86,39 48,1 55,-2 87,-36 30,-34 34,-44 34,-94 0,-50 -3,-59 -34,-90 -26,-26 -42,-34 -69,-34 -27,0 -37,-5 -42,-20 -20,-63 91,-65 167,-4 116,92 75,301 -66,342 -47,13 -117,0 -155,-30 -14,-11 -28,-15 -33,-10 -5,5 -8,40 -6,78 l 3,69 233,3 232,2 9,-22 c 4,-13 9,-140 9,-283 1,-143 2,-263 2,-267 0,-5 16,-8 35,-8 27,0 35,4 35,18 0,9 0,128 0,263 0,142 4,257 9,273 l 11,26 h 178 c 125,0 182,-4 190,-12 19,-19 14,-90 -10,-138 -27,-53 -55,-69 -141,-78 l -62,-7 -3,-104 c -2,-88 0,-111 17,-145 30,-60 42,-73 90,-92 108,-43 241,28 241,130 0,52 -63,46 -86,-9 -30,-72 -95,-86 -150,-31 -34,34 -35,36 -32,113 l 3,78 h 195 195 l 3,-132 c 2,-127 4,-134 26,-148 13,-9 31,-13 40,-9 14,5 16,35 16,279 0,308 -1,305 71,305 38,0 40,2 37,28 l -3,27 -982,3 -981,2 -17,51 c -22,66 -53,112 -90,135 -141,86 -395,65 -475,-40 -8,-11 -25,-47 -36,-80 l -21,-61 h -559 -558 l -45,65 c -70,104 -110,137 -174,145 -75,10 -91,5 -95,-28 -2,-15 0,-27 5,-28 67,-4 97,-11 120,-27 46,-33 83,-80 83,-107 v -25 h -419 c -323,0 -421,3 -429,13 -5,6 -15,30 -21,52 -13,50 -74,112 -136,138 -61,26 -130,37 -239,37 -227,0 -343,-59 -371,-191 -4,-19 -13,-37 -19,-41 -6,-4 -46,-8 -88,-8 -76,0 -78,1 -93,30 -8,16 -15,37 -15,46 0,32 -69,102 -128,130 -49,24 -72,29 -169,32 -180,7 -286,-37 -337,-139 -9,-18 -16,-42 -16,-54 0,-13 -6,-28 -14,-34 -9,-8 -160,-10 -542,-9 -520,3 -529,3 -532,23 -10,51 -73,155 -95,155 -6,0 -18,6 -26,13 -55,46 -274,63 -377,29 z m 307,-76 c 66,-33 102,-75 97,-114 l -3,-27 h -240 -240 l -3,32 c -5,47 51,105 121,126 81,25 198,18 268,-17 z m 1715,18 c 63,-21 111,-57 131,-100 30,-62 22,-64 -244,-64 -199,0 -234,2 -239,15 -18,46 46,122 124,148 62,21 166,21 228,1 z m 957,-4 c 77,-24 114,-51 134,-98 26,-62 25,-63 -291,-60 l -281,3 -3,36 c -3,32 2,41 38,72 22,19 64,42 93,50 78,23 230,22 310,-3 z m 2719,3 c 91,-35 158,-112 128,-148 -11,-13 -42,-15 -224,-13 l -211,3 -3,24 c -4,29 24,83 52,101 77,49 183,63 258,33 z M 3899,2218 c 13,-37 5,-317 -10,-363 -10,-26 -28,-49 -57,-69 -37,-26 -51,-30 -111,-30 -64,-1 -72,1 -100,28 -60,58 -25,127 65,130 83,2 86,66 4,66 -45,0 -100,40 -100,73 0,36 39,67 84,67 72,0 86,8 86,47 0,60 14,73 76,73 47,0 56,-3 63,-22 z m 2765,0 c 22,-36 16,-252 -10,-303 -28,-58 -86,-94 -152,-95 -85,0 -140,38 -163,112 -14,45 -4,63 41,72 74,14 120,79 120,169 0,29 3,57 7,60 3,4 37,7 74,7 60,0 70,-3 83,-22 z m 3884,10 c 8,-8 12,-46 12,-105 v -93 h -94 c -52,0 -97,4 -100,9 -3,5 1,25 9,45 8,19 15,57 15,84 0,26 5,53 12,60 7,7 39,12 73,12 34,0 66,-5 73,-12 z M 3232,2045 c 38,-29 54,-92 38,-149 -14,-51 -30,-69 -82,-90 -32,-14 -42,-14 -85,-1 -58,17 -77,35 -98,94 -13,38 -13,46 1,79 17,43 41,71 69,83 34,15 128,5 157,-16 z m 1737,11 c 44,-23 61,-58 61,-124 0,-51 -4,-62 -27,-84 -57,-53 -113,-64 -171,-34 -52,27 -72,62 -72,125 1,59 12,81 60,114 30,21 110,23 149,3 z m 4224,0 c 48,-19 71,-61 71,-125 0,-49 -3,-56 -37,-87 -32,-29 -44,-34 -87,-34 -43,0 -56,5 -87,33 -33,31 -36,38 -36,91 0,51 4,61 33,91 44,45 88,55 143,31 z m -3425,-46 c 91,-56 53,-189 -55,-190 -106,-1 -144,146 -50,193 43,21 66,21 105,-3 z m 2935,-227 c 15,-50 -1,-139 -30,-173 -22,-26 -31,-30 -78,-30 -50,0 -56,3 -84,37 -17,21 -31,48 -31,61 0,55 60,112 117,112 16,0 38,7 49,15 28,21 47,14 57,-22 z"
       id="path29"
       style="stroke-width:4.49998;fill:#00225b;fill-opacity:1" />
    <path
       d="m 10823,2139 c -27,-10 -39,-52 -24,-85 13,-28 60,-33 85,-8 45,44 -2,115 -61,93 z"
       id="path31"
       style="stroke-width:4.49998;fill:#00225b;fill-opacity:1" />
    <path
       d="m 10818,1763 c -19,-5 -32,-40 -26,-70 2,-10 16,-24 31,-31 24,-12 31,-11 53,2 35,23 34,78 -1,94 -27,12 -29,13 -57,5 z"
       id="path33"
       style="stroke-width:4.49998;fill:#00225b;fill-opacity:1" />
  </g>
</svg>
