<?xml version="1.0" encoding="UTF-8" standalone="no"?>
<!-- Created with Inkscape (http://www.inkscape.org/) -->

<svg
   xmlns:dc="http://purl.org/dc/elements/1.1/"
   xmlns:cc="http://creativecommons.org/ns#"
   xmlns:rdf="http://www.w3.org/1999/02/22-rdf-syntax-ns#"
   xmlns:svg="http://www.w3.org/2000/svg"
   xmlns="http://www.w3.org/2000/svg"
   xmlns:sodipodi="http://sodipodi.sourceforge.net/DTD/sodipodi-0.dtd"
   xmlns:inkscape="http://www.inkscape.org/namespaces/inkscape"
   width="290.00003"
   height="62.182011"
   viewBox="0 0 76.729171 16.452323"
   version="1.1"
   id="svg8583"
   inkscape:version="0.92.0 r15299"
   sodipodi:docname="the carlyle group.svg">
  <defs
     id="defs8577">
    <clipPath
       id="clipPath8264"
       clipPathUnits="userSpaceOnUse">
      <path
         inkscape:connector-curvature="0"
         id="path8262"
         d="M 0,0 H 792 V 612 H 0 Z" />
    </clipPath>
    <clipPath
       id="clipPath8192"
       clipPathUnits="userSpaceOnUse">
      <path
         inkscape:connector-curvature="0"
         id="path8190"
         d="M 0,0 H 792 V 612 H 0 Z" />
    </clipPath>
  </defs>
  <sodipodi:namedview
     id="base"
     pagecolor="#ffffff"
     bordercolor="#666666"
     borderopacity="1.0"
     inkscape:pageopacity="0.0"
     inkscape:pageshadow="2"
     inkscape:zoom="2.7847221"
     inkscape:cx="144.00001"
     inkscape:cy="30.091003"
     inkscape:document-units="mm"
     inkscape:current-layer="layer1"
     showgrid="false"
     fit-margin-top="0"
     fit-margin-left="0"
     fit-margin-right="0"
     fit-margin-bottom="0"
     units="px"
     inkscape:window-width="1280"
     inkscape:window-height="744"
     inkscape:window-x="-4"
     inkscape:window-y="-4"
     inkscape:window-maximized="1" />
  <metadata
     id="metadata8580">
    <rdf:RDF>
      <cc:Work
         rdf:about="">
        <dc:format>image/svg+xml</dc:format>
        <dc:type
           rdf:resource="http://purl.org/dc/dcmitype/StillImage" />
        <dc:title></dc:title>
      </cc:Work>
    </rdf:RDF>
  </metadata>
  <g
     inkscape:label="Layer 1"
     inkscape:groupmode="layer"
     id="layer1"
     transform="translate(-59.417856,-200.81879)">
    <g
       id="g8711"
       transform="translate(0.26458537,-0.26457617)">
      <g
         transform="matrix(0.35277777,0,0,-0.35277777,-42.182144,300.15395)"
         id="g8186">
        <g
           clip-path="url(#clipPath8192)"
           id="g8188">
          <g
             transform="translate(299.3941,260.6167)"
             id="g8194">
            <path
               inkscape:connector-curvature="0"
               id="path8196"
               style="fill:#00538e;fill-opacity:1;fill-rule:nonzero;stroke:none"
               d="m 0,0 c 0,-0.834 -0.045,-1.408 -0.201,-1.649 -0.13,-0.22 -0.394,-0.306 -0.922,-0.33 l -1.055,-0.066 v -0.659 c 1.145,0.043 2.178,0.064 3.256,0.064 1.011,0 2.044,-0.021 3.19,-0.064 v 0.659 L 3.21,-1.979 C 2.685,-1.955 2.418,-1.869 2.288,-1.649 2.133,-1.408 2.089,-0.834 2.089,0 v 9.307 c 0,0.836 0.021,1.538 0.089,2.199 h 3.41 c 0.659,0 0.835,-0.198 0.878,-0.726 L 6.553,9.042 h 0.684 c 0,1.19 0.043,2.397 0.153,3.542 -1.584,0 -3.167,-0.066 -4.751,-0.066 h -3.19 c -1.584,0 -3.168,0.066 -4.752,0.066 0.112,-1.145 0.154,-2.352 0.154,-3.542 h 0.682 l 0.088,1.738 c 0.045,0.528 0.223,0.726 0.881,0.726 h 3.41 C -0.022,10.845 0,10.143 0,9.307 Z" />
          </g>
          <g
             transform="translate(309.5666,260.0019)"
             id="g8198">
            <path
               inkscape:connector-curvature="0"
               id="path8200"
               style="fill:#00538e;fill-opacity:1;fill-rule:nonzero;stroke:none"
               d="m 0,0 c 0,-1.231 -0.263,-1.474 -1.979,-1.474 v -0.615 c 0.924,0.022 1.848,0.064 2.772,0.064 1.034,0 2.09,-0.042 3.08,-0.064 v 0.615 c -1.585,0 -1.89,0.11 -1.89,1.474 V 3.277 C 2.86,3.301 3.784,3.32 4.817,3.32 5.851,3.32 6.776,3.301 7.656,3.277 V 0 c 0,-1.364 -0.308,-1.474 -1.892,-1.474 v -0.615 c 0.992,0.022 2.044,0.064 3.079,0.064 0.925,0 1.848,-0.042 2.772,-0.064 v 0.615 C 9.9,-1.474 9.637,-1.231 9.637,0 v 6.731 c 0,1.3 0.307,1.341 2.067,1.341 V 8.689 C 10.801,8.667 9.637,8.624 8.777,8.624 7.766,8.624 6.908,8.667 5.764,8.689 V 8.072 c 1.65,0 1.892,-0.041 1.892,-1.341 V 4.068 C 6.776,4.049 5.851,4.027 4.817,4.027 3.784,4.027 2.86,4.049 1.983,4.068 v 2.663 c 0,1.3 0.24,1.341 1.89,1.341 V 8.689 C 2.728,8.667 1.871,8.624 0.86,8.624 0,8.624 -1.166,8.667 -2.067,8.689 V 8.072 C -0.305,8.072 0,8.031 0,6.731 Z" />
          </g>
          <g
             transform="translate(325.2247,260.3546)"
             id="g8202">
            <path
               inkscape:connector-curvature="0"
               id="path8204"
               style="fill:#00538e;fill-opacity:1;fill-rule:nonzero;stroke:none"
               d="m 0,0 c 0,-1.563 -0.132,-1.827 -1.892,-1.827 v -0.615 c 1.078,0.022 1.85,0.064 2.838,0.064 1.056,0 2.133,-0.064 3.408,-0.064 1.035,0 2.114,0.022 2.994,0.109 0.087,0.859 0.152,1.869 0.174,2.993 H 6.951 C 6.841,-0.068 6.688,-0.726 6.468,-1.321 5.939,-1.474 4.97,-1.584 4.004,-1.584 c -0.748,0 -1.342,0.042 -1.937,0.088 -0.065,1.032 -0.089,2.484 -0.089,4.245 0.354,0.022 0.707,0.043 1.255,0.043 1.913,0 2.09,-0.262 2.09,-1.648 H 5.984 C 5.961,1.759 5.939,2.506 5.939,3.19 c 0,0.592 0.022,1.277 0.045,1.869 H 5.323 c 0,-1.233 -0.177,-1.475 -1.231,-1.475 -1.013,0 -1.605,0.021 -2.114,0.045 0,1.275 -0.02,2.707 0.047,3.85 C 2.42,7.545 2.882,7.612 3.409,7.612 4.465,7.612 5.522,7.545 6.378,7.39 6.51,6.929 6.532,6.467 6.599,5.634 H 7.216 C 7.26,6.688 7.348,7.523 7.479,8.271 6.776,8.381 5.697,8.446 4.817,8.446 4.025,8.446 3.211,8.402 2.42,8.36 1.627,8.315 0.835,8.271 0.022,8.271 c -0.769,0 -1.385,0.044 -2.067,0.065 V 7.742 C -0.396,7.742 0,7.654 0,6.204 Z" />
          </g>
          <g
             transform="translate(354.7527,259.8248)"
             id="g8206">
            <path
               inkscape:connector-curvature="0"
               id="path8208"
               style="fill:#00538e;fill-opacity:1;fill-rule:nonzero;stroke:none"
               d="m 0,0 -0.196,0.22 c -1.013,-0.747 -2.883,-1.318 -4.465,-1.318 -4.357,0 -7.238,2.813 -7.238,7.172 0,3.739 2.177,6.752 6.313,6.752 0.814,0 1.76,-0.131 2.462,-0.373 1.012,-0.375 1.893,-0.749 1.893,-1.366 V 9.506 h 0.681 c 0,1.141 0.2,2.308 0.419,3.344 -1.056,0.371 -3.036,0.899 -5.082,0.899 -2.463,0 -4.708,-0.748 -6.356,-2.112 -1.694,-1.384 -2.684,-3.388 -2.684,-5.917 0,-4.994 3.563,-8.006 8.841,-8.006 1.343,0 3.521,0.417 4.799,1.188 z" />
          </g>
          <g
             transform="translate(360.4781,266.5588)"
             id="g8210">
            <path
               inkscape:connector-curvature="0"
               id="path8212"
               style="fill:#00538e;fill-opacity:1;fill-rule:nonzero;stroke:none"
               d="m 0,0 1.848,-4.314 c -0.727,-0.02 -1.298,-0.043 -2.003,-0.043 -0.638,0 -1.21,0.023 -1.78,0.043 z m 0.11,2.374 -3.652,-8.028 c -0.989,-2.243 -1.342,-2.377 -2.33,-2.377 v -0.615 c 0.988,0.022 1.493,0.064 2.153,0.064 0.792,0 1.562,-0.042 2.287,-0.064 v 0.615 c -1.12,0 -1.626,0.175 -1.626,0.791 0,0.814 0.549,1.539 0.748,2.004 0.748,0.02 1.496,0.041 2.222,0.041 0.77,0 1.518,-0.021 2.264,-0.041 0.286,-0.617 0.88,-1.718 0.88,-2.199 0,-0.421 -0.33,-0.596 -1.626,-0.596 v -0.615 c 0.967,0.022 1.782,0.064 2.704,0.064 0.946,0 2.265,-0.042 2.618,-0.064 v 0.615 c -0.835,0 -1.298,0.088 -1.98,1.714 L 0.944,2.374 Z" />
          </g>
          <g
             transform="translate(368.3,257.9125)"
             id="g8214">
            <path
               inkscape:connector-curvature="0"
               id="path8216"
               style="fill:#00538e;fill-opacity:1;fill-rule:nonzero;stroke:none"
               d="M 0,0 C 1.013,0.022 2.005,0.064 2.994,0.064 4.598,0.064 5.37,0.022 5.897,0 V 0.615 C 4.224,0.615 3.96,0.659 3.96,1.692 v 8.14 c 0.396,0.176 0.926,0.222 1.41,0.222 1.582,0 2.333,-0.638 2.333,-2.068 C 7.703,6.664 6.69,5.698 5.37,5.698 5.061,5.698 4.82,5.719 4.577,5.741 L 4.489,5.39 8.887,0.064 h 2.729 v 0.551 c -0.681,0 -0.858,0.175 -1.297,0.705 L 6.952,5.435 C 8.008,5.83 9.9,6.356 9.9,8.403 c 0,1.828 -1.451,2.375 -3.41,2.375 -1.165,0 -2.442,-0.065 -3.585,-0.065 -1.056,0 -1.958,0.065 -2.905,0.065 v -0.616 c 1.805,0 1.98,-0.154 1.98,-1.298 V 1.958 C 1.98,0.659 1.584,0.615 0,0.615 Z" />
          </g>
          <g
             transform="translate(383.6482,260.2653)"
             id="g8218">
            <path
               inkscape:connector-curvature="0"
               id="path8220"
               style="fill:#00538e;fill-opacity:1;fill-rule:nonzero;stroke:none"
               d="m 0,0 c 0,-1.452 -0.309,-1.583 -1.277,-1.738 v -0.615 c 0.772,0.022 1.364,0.065 2.288,0.065 1.032,0 1.671,-0.065 3.783,-0.065 0.968,0 1.98,0.022 2.705,0.065 0.066,1.035 0.178,1.959 0.374,2.905 H 7.214 L 6.774,-1.167 C 6.158,-1.384 4.926,-1.473 3.562,-1.473 c -0.615,0 -1.056,0.021 -1.495,0.044 -0.066,0.703 -0.089,1.297 -0.089,2.046 v 5.829 c 0,1.343 0.484,1.363 1.893,1.363 V 8.426 C 2.66,8.404 1.584,8.36 0.833,8.36 c -1.01,0 -1.802,0.044 -2.813,0.066 V 7.809 C -0.353,7.809 0,7.789 0,6.777 Z" />
          </g>
          <g
             transform="translate(393.8405,257.9125)"
             id="g8222">
            <path
               inkscape:connector-curvature="0"
               id="path8224"
               style="fill:#00538e;fill-opacity:1;fill-rule:nonzero;stroke:none"
               d="M 0,0 C 0.96,0.022 1.747,0.064 2.886,0.064 3.676,0.064 4.82,0.022 5.79,0 v 0.615 c -1.321,0 -1.894,0.044 -1.894,1.54 v 2.267 c 1.231,2.178 2.62,4.511 3.915,5.984 v 0.307 H 6.317 C 5.525,9.195 3.938,6.378 3.458,5.521 L 1.485,9.173 c -0.504,0.947 -1.07,1.54 -1.638,1.739 -0.611,-0.179 -1.579,-0.265 -2.261,-0.375 V 9.921 c 0.792,0 1.036,-0.131 1.954,-1.429 C 0.132,7.656 0.939,6.334 1.923,4.555 V 1.671 C 1.923,0.946 1.615,0.615 0,0.615 Z" />
          </g>
          <g
             transform="translate(405.2895,260.2653)"
             id="g8226">
            <path
               inkscape:connector-curvature="0"
               id="path8228"
               style="fill:#00538e;fill-opacity:1;fill-rule:nonzero;stroke:none"
               d="m 0,0 c 0,-1.452 -0.306,-1.583 -1.277,-1.738 v -0.615 c 0.772,0.022 1.366,0.065 2.289,0.065 1.033,0 1.674,-0.065 3.784,-0.065 0.969,0 1.979,0.022 2.707,0.065 0.068,1.035 0.174,1.959 0.376,2.905 H 7.216 L 6.775,-1.167 C 6.162,-1.384 4.93,-1.473 3.566,-1.473 c -0.619,0 -1.06,0.021 -1.5,0.044 -0.065,0.703 -0.087,1.297 -0.087,2.046 v 5.829 c 0,1.343 0.485,1.363 1.896,1.363 V 8.426 C 2.661,8.404 1.584,8.36 0.837,8.36 c -1.013,0 -1.804,0.044 -2.816,0.066 V 7.809 C -0.351,7.809 0,7.789 0,6.777 Z" />
          </g>
          <g
             transform="translate(415.8691,260.3546)"
             id="g8230">
            <path
               inkscape:connector-curvature="0"
               id="path8232"
               style="fill:#00538e;fill-opacity:1;fill-rule:nonzero;stroke:none"
               d="m 0,0 c 0,-1.563 -0.132,-1.827 -1.893,-1.827 v -0.615 c 1.078,0.022 1.846,0.064 2.839,0.064 1.057,0 2.132,-0.064 3.408,-0.064 1.034,0 2.113,0.022 2.994,0.109 0.087,0.859 0.152,1.869 0.173,2.993 H 6.952 C 6.84,-0.068 6.688,-0.726 6.467,-1.321 5.94,-1.474 4.972,-1.584 4.003,-1.584 c -0.747,0 -1.343,0.042 -1.94,0.088 -0.06,1.032 -0.085,2.484 -0.085,4.245 0.35,0.022 0.706,0.043 1.254,0.043 1.917,0 2.092,-0.262 2.092,-1.648 H 5.982 C 5.961,1.759 5.94,2.506 5.94,3.19 c 0,0.592 0.021,1.277 0.042,1.869 H 5.324 c 0,-1.233 -0.175,-1.475 -1.232,-1.475 -1.014,0 -1.61,0.021 -2.114,0.045 0,1.275 -0.021,2.707 0.043,3.85 C 2.416,7.545 2.88,7.612 3.409,7.612 4.464,7.612 5.52,7.545 6.38,7.39 6.511,6.929 6.533,6.467 6.598,5.634 H 7.214 C 7.258,6.688 7.348,7.523 7.479,8.271 6.776,8.381 5.697,8.446 4.815,8.446 4.026,8.446 3.211,8.402 2.416,8.36 1.627,8.315 0.833,8.271 0.02,8.271 c -0.767,0 -1.384,0.044 -2.065,0.065 V 7.742 C -0.395,7.742 0,7.654 0,6.204 Z" />
          </g>
          <g
             transform="translate(443.3259,260.1329)"
             id="g8234">
            <path
               inkscape:connector-curvature="0"
               id="path8236"
               style="fill:#00538e;fill-opacity:1;fill-rule:nonzero;stroke:none"
               d="m 0,0 c 0,-0.549 -0.018,-0.66 -0.11,-0.9 -0.129,-0.396 -1.384,-0.771 -3.082,-0.771 -4.528,0 -7.081,3.146 -7.081,7.526 0,3.914 2.178,6.662 6.358,6.662 1.433,0 2.374,-0.152 3.082,-0.393 1.032,-0.377 1.824,-0.729 1.824,-1.762 V 9.198 h 0.68 c 0,1.141 0.178,2.308 0.44,3.343 -1.01,0.286 -2.726,0.899 -5.453,0.899 -5.302,0 -9.283,-3.123 -9.283,-7.96 0,-5.523 3.962,-8.074 8.865,-8.074 1.517,0 3.892,0.571 5.784,1.123 v 3.694 c 0,0.636 0,0.725 0.242,0.813 L 2.905,3.255 2.819,3.806 C 1.914,3.785 1.017,3.761 0.111,3.761 c -0.879,0 -1.782,0.024 -2.684,0.045 V 3.146 L -0.75,2.992 C -0.172,2.948 0,2.728 0,2.223 Z" />
          </g>
          <g
             transform="translate(448.3468,257.9125)"
             id="g8238">
            <path
               inkscape:connector-curvature="0"
               id="path8240"
               style="fill:#00538e;fill-opacity:1;fill-rule:nonzero;stroke:none"
               d="M 0,0 C 1.01,0.022 2,0.064 2.991,0.064 4.598,0.064 5.37,0.022 5.893,0 v 0.615 c -1.67,0 -1.934,0.044 -1.934,1.077 v 8.14 c 0.395,0.176 0.927,0.222 1.411,0.222 1.583,0 2.329,-0.638 2.329,-2.068 0,-1.322 -1.014,-2.288 -2.329,-2.288 -0.31,0 -0.553,0.021 -0.793,0.043 L 4.488,5.39 8.884,0.064 h 2.729 v 0.551 c -0.681,0 -0.857,0.175 -1.298,0.705 L 6.953,5.435 c 1.051,0.395 2.946,0.921 2.946,2.968 0,1.828 -1.45,2.375 -3.409,2.375 -1.164,0 -2.442,-0.065 -3.588,-0.065 -1.056,0 -1.956,0.065 -2.902,0.065 v -0.616 c 1.804,0 1.978,-0.154 1.978,-1.298 V 1.958 C 1.978,0.659 1.58,0.615 0,0.615 Z" />
          </g>
          <g
             transform="translate(466.6736,268.185)"
             id="g8242">
            <path
               inkscape:connector-curvature="0"
               id="path8244"
               style="fill:#00538e;fill-opacity:1;fill-rule:nonzero;stroke:none"
               d="m 0,0 c 2.728,0 3.872,-2.286 3.872,-5.016 0,-2.112 -0.658,-4.618 -3.253,-4.618 -3.086,0 -4.004,2.859 -4.004,5.277 C -3.385,-1.584 -1.893,0 0,0 m 0.42,0.747 c -3.193,0 -6.007,-1.979 -6.007,-5.763 0,-3.52 3.035,-5.499 5.678,-5.499 3.736,0 5.982,3.036 5.982,6.006 0,2.705 -1.871,5.256 -5.653,5.256" />
          </g>
          <g
             transform="translate(477.5956,267.1971)"
             id="g8246">
            <path
               inkscape:connector-curvature="0"
               id="path8248"
               style="fill:#00538e;fill-opacity:1;fill-rule:nonzero;stroke:none"
               d="M 0,0 C 0,0.636 0.263,0.877 1.673,0.923 V 1.494 C 0.397,1.472 -0.308,1.428 -1.008,1.428 c -0.929,0 -1.872,0.044 -2.819,0.066 V 0.877 c 1.278,0 1.85,-0.107 1.85,-1.098 v -5.147 c 0,-2.661 0.834,-4.159 4.486,-4.159 3.694,0 4.335,2.089 4.335,4.356 v 4.73 c 0,1.164 0.282,1.318 1.871,1.318 V 1.494 C 8.141,1.472 7.415,1.428 6.444,1.428 5.677,1.428 4.885,1.472 4.094,1.494 V 0.877 c 1.713,0 1.87,-0.196 1.87,-1.405 v -4.755 c 0,-2.24 -1.079,-3.101 -2.994,-3.101 -2.265,0 -2.97,1.167 -2.97,3.059 z" />
          </g>
          <g
             transform="translate(489.8446,259.8708)"
             id="g8250">
            <path
               inkscape:connector-curvature="0"
               id="path8252"
               style="fill:#00538e;fill-opacity:1;fill-rule:nonzero;stroke:none"
               d="m 0,0 c 0,-1.012 -0.396,-1.343 -1.979,-1.343 v -0.615 c 1.012,0.022 2.002,0.064 2.991,0.064 1.604,0 2.375,-0.042 2.904,-0.064 v 0.615 C 2.243,-1.255 1.979,-1.012 1.979,0 V 7.918 C 2.354,8.029 2.771,8.183 3.344,8.183 4.666,8.183 5.72,7.347 5.72,6.028 5.72,4.66 5.06,3.74 3.521,3.74 3.256,3.74 2.991,3.805 2.815,3.914 L 2.946,3.255 C 3.145,3.167 3.521,3.077 3.916,3.077 6.554,3.077 7.784,4.818 7.784,6.293 7.784,7.787 7.038,8.93 4.071,8.93 3.499,8.93 2.926,8.886 2.376,8.844 1.825,8.798 1.3,8.755 0.726,8.755 c -0.904,0 -2.089,0.043 -2.705,0.065 V 8.203 C -0.178,8.203 0,8.05 0,6.906 Z" />
          </g>
        </g>
      </g>
      <path
         inkscape:connector-curvature="0"
         id="path8254"
         style="fill:#00538e;fill-opacity:1;fill-rule:nonzero;stroke:none;stroke-width:0.35277778"
         d="m 59.417856,201.6277 h 76.200004 v -0.27975 H 59.417856 Z" />
      <path
         inkscape:connector-curvature="0"
         id="path8256"
         style="fill:#00538e;fill-opacity:1;fill-rule:nonzero;stroke:none;stroke-width:0.35277778"
         d="m 59.417856,212.15883 h 76.200004 v -0.27976 H 59.417856 Z" />
      <g
         transform="matrix(0.35277777,0,0,-0.35277777,-42.182144,300.15395)"
         id="g8258">
        <g
           clip-path="url(#clipPath8264)"
           id="g8260">
          <g
             transform="translate(304.3953,237.6045)"
             id="g8266">
            <path
               inkscape:connector-curvature="0"
               id="path8268"
               style="fill:#00538e;fill-opacity:1;fill-rule:nonzero;stroke:none"
               d="m 0,0 v -1.901 c -0.34,-0.081 -0.558,-0.114 -0.817,-0.114 -1.238,0 -1.95,0.761 -1.95,2.08 0,1.229 0.72,1.982 1.901,1.982 0.47,0 1.011,-0.146 1.343,-0.356 0.113,-0.073 0.137,-0.089 0.161,-0.089 0.008,0 0.025,0.008 0.049,0.016 l 0.145,0.081 c 0.033,0.016 0.049,0.04 0.049,0.057 V 1.788 L 0.849,2.305 c 0,0.105 -0.009,0.13 -0.081,0.162 -0.227,0.097 -1.027,0.218 -1.488,0.218 -1.91,0 -3.227,-1.124 -3.227,-2.758 0,-0.874 0.38,-1.634 1.042,-2.087 0.486,-0.323 1.117,-0.484 1.918,-0.484 0.663,0 1.359,0.096 2.11,0.282 V 0 Z m 2.923,2.58 v -5.127 h 3.501 v 0.678 H 4.046 V 2.58 Z m 7.346,0.097 C 9.444,2.677 8.797,2.467 8.182,1.998 7.536,1.505 7.196,0.809 7.196,-0.024 c 0,-0.785 0.323,-1.513 0.873,-1.982 0.493,-0.42 1.173,-0.646 1.974,-0.646 1.828,0 3.065,1.091 3.065,2.701 0,1.577 -1.132,2.628 -2.839,2.628 m -0.21,-0.638 c 1.1,0 1.869,-0.874 1.869,-2.136 0,-0.672 -0.21,-1.181 -0.631,-1.537 -0.3,-0.243 -0.68,-0.381 -1.068,-0.381 -1.068,0 -1.853,0.882 -1.853,2.096 0,1.157 0.688,1.958 1.683,1.958 m 4.633,-4.586 h 1.997 c 1.319,0 2.143,0.605 2.143,1.576 0,0.721 -0.428,1.222 -1.188,1.391 0.59,0.259 0.864,0.599 0.864,1.077 0,0.372 -0.202,0.695 -0.549,0.889 C 17.652,2.556 17.264,2.62 16.616,2.62 16.495,2.62 16.22,2.612 15.863,2.604 15.54,2.596 15.419,2.596 14.692,2.58 Z m 1.107,3.056 v 1.506 c 0.154,0.008 0.17,0.008 0.315,0.008 0.122,0.008 0.219,0.008 0.267,0.008 0.688,0 0.947,-0.203 0.947,-0.737 0,-0.275 -0.081,-0.477 -0.242,-0.607 C 16.916,0.55 16.713,0.509 16.179,0.509 Z m 0,-0.589 h 0.388 c 0.551,0 0.874,-0.049 1.069,-0.154 0.258,-0.154 0.396,-0.421 0.396,-0.793 0,-0.623 -0.364,-0.907 -1.165,-0.907 -0.089,0 -0.632,0 -0.688,0.008 z m 6.387,2.66 -2.451,-5.127 h 0.987 l 0.614,1.528 h 1.99 l 0.566,-1.528 H 25.13 L 23.019,2.58 Z m 0.906,-2.993 h -1.505 l 0.785,1.942 z m 3.341,2.993 v -5.127 h 3.501 v 0.678 H 27.556 V 2.58 Z m 8.557,0 -2.451,-5.127 h 0.987 l 0.614,1.528 h 1.99 l 0.566,-1.528 h 1.238 L 35.823,2.58 Z m 0.906,-2.993 h -1.505 l 0.785,1.942 z m 3.341,2.993 v -5.127 h 3.501 v 0.678 H 40.36 V 2.58 Z m 3.389,0 V 1.901 h 2.014 v -4.448 h 1.124 v 4.448 h 2.014 V 2.58 Z m 6.358,0 v -5.127 h 3.817 v 0.678 h -2.694 v 1.7 h 2.33 v 0.638 h -2.33 v 1.473 h 2.605 V 2.58 Z m 5.295,-5.128 h 1.123 v 2.16 c 0.114,-0.008 0.179,-0.008 0.268,-0.008 0.161,0 0.267,0.008 0.412,0.016 0.356,-0.728 0.567,-1.116 0.793,-1.432 0.421,-0.583 0.874,-0.832 1.488,-0.832 0.388,0 0.606,0.056 0.631,0.16 l 0.081,0.324 -0.025,0.041 c -0.639,-0.049 -1.132,0.469 -1.843,1.941 0.792,0.234 1.204,0.703 1.204,1.375 0,0.502 -0.21,0.882 -0.638,1.149 -0.339,0.21 -0.72,0.274 -1.569,0.274 0,0 -0.64,-0.016 -1.925,-0.04 z m 1.123,4.546 c 0.324,0.008 0.365,0.008 0.583,0.008 0.405,0 0.591,-0.024 0.753,-0.089 0.324,-0.121 0.493,-0.388 0.493,-0.785 0,-0.655 -0.388,-0.955 -1.238,-0.955 -0.064,0 -0.162,0 -0.591,0.017 z M 60.3,2.58 60.267,-2.548 h 0.809 l -0.065,3.664 3.454,-3.777 0.663,0.169 0.009,5.072 h -0.809 l 0.064,-3.599 -3.283,3.599 z m 8.598,0 -2.45,-5.127 h 0.986 l 0.615,1.528 h 1.99 l 0.566,-1.528 h 1.238 L 69.732,2.58 Z m 0.906,-2.993 H 68.3 l 0.784,1.942 z M 71.89,2.58 V 1.901 h 2.014 v -4.448 h 1.123 v 4.448 h 2.014 V 2.58 Z m 6.358,-5.127 h 1.123 V 2.58 h -1.123 z m 2.42,5.127 2.086,-5.127 h 0.801 L 85.99,2.58 H 84.987 L 83.369,-1.359 81.913,2.58 Z m 6.502,0 v -5.127 h 3.816 v 0.678 h -2.693 v 1.7 h 2.329 v 0.638 h -2.329 v 1.473 h 2.604 V 2.58 Z m 9.155,0 -2.451,-5.127 h 0.987 l 0.615,1.528 h 1.989 l 0.567,-1.528 h 1.237 L 97.158,2.58 Z m 0.906,-2.993 h -1.505 l 0.785,1.942 z m 6.517,2.791 c -0.016,0.081 -0.024,0.105 -0.081,0.129 -0.177,0.081 -0.808,0.17 -1.188,0.17 -1.238,0 -2.062,-0.598 -2.062,-1.496 0,-0.348 0.137,-0.696 0.371,-0.922 0.243,-0.227 0.525,-0.388 1.205,-0.688 0.858,-0.364 1.004,-0.485 1.004,-0.841 0,-0.429 -0.364,-0.704 -0.931,-0.704 -0.445,0 -0.987,0.178 -1.407,0.469 -0.016,0.016 -0.04,0.024 -0.049,0.024 -0.008,0 -0.032,-0.008 -0.056,-0.024 L 100.36,-1.61 c -0.041,-0.024 -0.049,-0.032 -0.049,-0.065 0,-0.008 0,-0.048 0.008,-0.073 l 0.065,-0.557 c 0.008,-0.097 0.024,-0.105 0.121,-0.138 0.308,-0.104 1.043,-0.201 1.464,-0.201 1.165,0 2.046,0.686 2.046,1.6 0,0.348 -0.146,0.68 -0.388,0.906 -0.234,0.219 -0.355,0.292 -1.1,0.632 -0.542,0.242 -0.72,0.331 -0.874,0.445 -0.137,0.097 -0.218,0.258 -0.218,0.453 0,0.404 0.332,0.647 0.874,0.647 0.348,0 0.777,-0.122 1.043,-0.3 0.13,-0.089 0.13,-0.089 0.154,-0.089 0.016,0 0.016,0 0.064,0.025 l 0.186,0.097 c 0.049,0.024 0.057,0.032 0.057,0.056 l -0.008,0.073 z m 4.891,0 c -0.016,0.081 -0.024,0.105 -0.08,0.129 -0.178,0.081 -0.809,0.17 -1.189,0.17 -1.238,0 -2.062,-0.598 -2.062,-1.496 0,-0.348 0.137,-0.696 0.371,-0.922 0.243,-0.227 0.526,-0.388 1.205,-0.688 0.858,-0.364 1.004,-0.485 1.004,-0.841 0,-0.429 -0.364,-0.704 -0.931,-0.704 -0.445,0 -0.987,0.178 -1.407,0.469 -0.016,0.016 -0.04,0.024 -0.048,0.024 -0.009,0 -0.033,-0.008 -0.057,-0.024 l -0.194,-0.105 c -0.04,-0.024 -0.049,-0.032 -0.049,-0.065 0,-0.008 0,-0.048 0.009,-0.073 l 0.064,-0.557 c 0.008,-0.097 0.025,-0.105 0.121,-0.138 0.308,-0.104 1.043,-0.201 1.464,-0.201 1.165,0 2.046,0.686 2.046,1.6 0,0.348 -0.146,0.68 -0.388,0.906 -0.234,0.219 -0.355,0.292 -1.1,0.632 -0.542,0.242 -0.72,0.331 -0.874,0.445 -0.137,0.097 -0.218,0.258 -0.218,0.453 0,0.404 0.332,0.647 0.874,0.647 0.348,0 0.777,-0.122 1.043,-0.3 0.13,-0.089 0.13,-0.089 0.154,-0.089 0.016,0 0.016,0 0.065,0.025 l 0.185,0.097 c 0.049,0.024 0.057,0.032 0.057,0.056 l -0.008,0.073 z m 1.818,0.202 v -5.127 h 3.816 v 0.678 h -2.693 v 1.7 h 2.329 v 0.638 h -2.329 v 1.473 h 2.604 V 2.58 Z m 4.745,0 V 1.901 h 2.014 v -4.448 h 1.123 v 4.448 h 2.014 V 2.58 Z m 8.419,0 -0.347,-5.127 h 0.825 l 0.056,3.769 1.788,-3.737 0.509,0.08 1.853,3.503 0.121,-3.615 h 1.084 l -0.186,5.127 h -1.027 l -1.885,-3.688 -1.779,3.688 z m 9.601,0 -2.45,-5.127 h 0.986 l 0.615,1.528 h 1.99 l 0.566,-1.528 h 1.238 l -2.111,5.127 z m 0.906,-2.993 h -1.504 l 0.784,1.942 z m 3.364,2.993 -0.032,-5.128 h 0.809 l -0.065,3.664 3.454,-3.777 0.663,0.169 0.008,5.072 h -0.809 l 0.065,-3.599 -3.284,3.599 z m 8.599,0 -2.451,-5.127 h 0.987 l 0.615,1.528 h 1.989 l 0.567,-1.528 h 1.237 l -2.111,5.127 z m 0.906,-2.993 h -1.505 l 0.785,1.942 z M 153.754,0 v -1.901 c -0.339,-0.081 -0.558,-0.114 -0.817,-0.114 -1.238,0 -1.95,0.761 -1.95,2.08 0,1.229 0.72,1.982 1.902,1.982 0.469,0 1.011,-0.146 1.342,-0.356 0.113,-0.073 0.138,-0.089 0.162,-0.089 0.008,0 0.024,0.008 0.048,0.016 l 0.146,0.081 c 0.032,0.016 0.048,0.04 0.048,0.057 v 0.032 l -0.032,0.517 c 0,0.105 -0.008,0.13 -0.081,0.162 -0.226,0.097 -1.027,0.218 -1.488,0.218 -1.909,0 -3.227,-1.124 -3.227,-2.758 0,-0.874 0.38,-1.634 1.043,-2.087 0.485,-0.323 1.116,-0.484 1.917,-0.484 0.664,0 1.359,0.096 2.111,0.282 V 0 Z m 2.923,2.58 v -5.127 h 3.817 v 0.678 h -2.693 v 1.7 h 2.329 v 0.638 h -2.329 v 1.473 h 2.604 V 2.58 Z m 5.447,0 -0.348,-5.127 h 0.825 l 0.056,3.769 1.788,-3.737 0.51,0.08 1.852,3.503 0.121,-3.615 h 1.084 l -0.186,5.127 h -1.027 l -1.885,-3.688 -1.779,3.688 z m 7.733,0 v -5.127 h 3.816 v 0.678 h -2.693 v 1.7 h 2.329 v 0.638 h -2.329 v 1.473 h 2.604 V 2.58 Z m 5.318,0 -0.032,-5.128 h 0.808 l -0.064,3.664 3.453,-3.777 0.664,0.169 0.008,5.072 h -0.809 l 0.065,-3.599 -3.284,3.599 z m 6.059,0 V 1.901 h 2.014 v -4.448 h 1.124 v 4.448 h 2.014 V 2.58 Z" />
          </g>
        </g>
      </g>
    </g>
  </g>
</svg>
