<?xml version="1.0" encoding="UTF-8" standalone="no"?>
<!-- Created with Inkscape (http://www.inkscape.org/) -->

<svg
   xmlns:dc="http://purl.org/dc/elements/1.1/"
   xmlns:cc="http://creativecommons.org/ns#"
   xmlns:rdf="http://www.w3.org/1999/02/22-rdf-syntax-ns#"
   xmlns:svg="http://www.w3.org/2000/svg"
   xmlns="http://www.w3.org/2000/svg"
   xmlns:sodipodi="http://sodipodi.sourceforge.net/DTD/sodipodi-0.dtd"
   xmlns:inkscape="http://www.inkscape.org/namespaces/inkscape"
   width="800"
   height="563"
   viewBox="0 0 211.66666 148.96042"
   version="1.1"
   id="svg8"
   inkscape:version="0.92.2 (5c3e80d, 2017-08-06)"
   sodipodi:docname="Atlantic logo.svg">
  <defs
     id="defs2" />
  <sodipodi:namedview
     id="base"
     pagecolor="#ffffff"
     bordercolor="#666666"
     borderopacity="1.0"
     inkscape:pageopacity="0.0"
     inkscape:pageshadow="2"
     inkscape:zoom="5.6"
     inkscape:cx="842.51009"
     inkscape:cy="538.11226"
     inkscape:document-units="mm"
     inkscape:current-layer="layer1"
     showgrid="false"
     inkscape:window-width="1532"
     inkscape:window-height="878"
     inkscape:window-x="60"
     inkscape:window-y="-8"
     inkscape:window-maximized="1"
     units="px" />
  <metadata
     id="metadata5">
    <rdf:RDF>
      <cc:Work
         rdf:about="">
        <dc:format>image/svg+xml</dc:format>
        <dc:type
           rdf:resource="http://purl.org/dc/dcmitype/StillImage" />
        <dc:title></dc:title>
      </cc:Work>
    </rdf:RDF>
  </metadata>
  <g
     inkscape:label="Ebene 1"
     inkscape:groupmode="layer"
     id="layer1"
     transform="translate(0,-148.03956)">
    <path
       style="fill:#df047a;fill-opacity:1;fill-rule:evenodd;stroke:#000000;stroke-width:0.95647186px;stroke-linecap:butt;stroke-linejoin:miter;stroke-opacity:1"
       d="m 106.08951,152.8461 v 99.74634 h 99.74637 V 152.1629 Z"
       id="path865"
       inkscape:connector-curvature="0" />
    <path
       style="fill:#05a03d;fill-opacity:1;fill-rule:evenodd;stroke:#000000;stroke-width:0.95647186px;stroke-linecap:butt;stroke-linejoin:miter;stroke-opacity:1"
       d="M 84.568894,151.82132 35.037317,258.39891 H 95.841604 L 95.500022,156.26207 Z"
       id="path863"
       inkscape:connector-curvature="0" />
    <path
       style="fill:#ec7e15;fill-opacity:1;fill-rule:evenodd;stroke:none;stroke-width:0.95647186px;stroke-linecap:butt;stroke-linejoin:miter;stroke-opacity:1"
       d="m 4.8059781,153.01691 v 99.74631 H 21.031836 l 53.97234,-100.25874 z"
       id="path861"
       inkscape:connector-curvature="0" />
    <path
       style="fill:#000000;fill-rule:evenodd;stroke:none;stroke-width:0.95647186px;stroke-linecap:butt;stroke-linejoin:miter;stroke-opacity:1"
       d="m 163.11957,191.96934 c 11.79527,10.26729 15.00356,23.87188 8.71069,35.01371 -10.48552,18.56518 -28.18176,16.53995 -38.42967,13.83469 2.27757,3.08006 15.43675,10.58949 26.1322,10.58949 18.90659,0 33.47649,-14.55701 33.47649,-27.84015 0,-15.47442 -8.44286,-29.2996 -29.88971,-31.59774 z"
       id="path6790"
       inkscape:connector-curvature="0"
       sodipodi:nodetypes="cscssc" />
    <path
       style="fill:#000000;fill-rule:evenodd;stroke:none;stroke-width:0.95647186px;stroke-linecap:butt;stroke-linejoin:miter;stroke-opacity:1"
       d="m 145.32232,198.487 c 10.26729,-11.79529 23.87188,-15.00356 35.01371,-8.7107 18.56518,10.48553 16.53994,28.18177 13.83468,38.42967 3.08006,-2.27756 10.5895,-15.43675 10.5895,-26.1322 0,-18.90658 -14.55701,-33.47649 -27.84016,-33.47649 -15.47441,0 -29.29959,8.44286 -31.59773,29.88972 z"
       id="path6790-8"
       inkscape:connector-curvature="0"
       sodipodi:nodetypes="cscssc" />
    <path
       style="fill:#000000;fill-rule:evenodd;stroke:none;stroke-width:0.95647186px;stroke-linecap:butt;stroke-linejoin:miter;stroke-opacity:1"
       d="m 152.90441,214.83552 c -11.79527,-10.26728 -15.00356,-23.87187 -8.71069,-35.01369 10.48552,-18.56516 28.18176,-16.53991 38.42967,-13.83466 -2.27757,-3.08007 -15.43675,-10.58949 -26.1322,-10.58949 -18.90659,0 -33.47651,14.55701 -33.47651,27.84011 0,15.47445 8.44288,29.29964 29.88973,31.59773 z"
       id="path6790-9"
       inkscape:connector-curvature="0"
       sodipodi:nodetypes="cscssc" />
    <path
       style="fill:#000000;fill-rule:evenodd;stroke:none;stroke-width:0.95647186px;stroke-linecap:butt;stroke-linejoin:miter;stroke-opacity:1"
       d="m 170.70223,208.94425 c -10.26724,11.79528 -23.87184,15.00357 -35.01366,8.7107 -18.56521,-10.48552 -16.53996,-28.18177 -13.8347,-38.42968 -3.08007,2.27756 -10.58949,15.43676 -10.58949,26.1322 0,18.90658 14.557,33.4765 27.84016,33.4765 15.47441,0 29.2996,-8.44287 31.59769,-29.88972 z"
       id="path6790-1"
       inkscape:connector-curvature="0"
       sodipodi:nodetypes="cscssc" />
    <circle
       style="opacity:1;fill:#000000;fill-opacity:1;stroke:none;stroke-width:1.91294372;stroke-linecap:square;stroke-linejoin:miter;stroke-miterlimit:4;stroke-dasharray:none;stroke-dashoffset:0;stroke-opacity:1;paint-order:markers fill stroke"
       id="path6834"
       cx="157.7394"
       cy="204.01071"
       r="8.6253271" />
    <path
       style="fill:#000000;fill-rule:evenodd;stroke:none;stroke-width:0.95647186px;stroke-linecap:butt;stroke-linejoin:miter;stroke-opacity:1"
       d="M 113.60439,152.33331 59.11911,154.38262 2.756393,258.39895 h 32.280924 l 7.007278,-13.15152 h 45.598679 v 14.68895 h 25.961116 z m -25.961116,7.34538 v 59.43766 H 55.969487 Z"
       id="path841"
       inkscape:connector-curvature="0" />
    <rect
       style="opacity:1;fill:#f9f406;fill-opacity:1;stroke:#000000;stroke-width:5.73883152;stroke-linecap:round;stroke-linejoin:miter;stroke-miterlimit:4;stroke-dasharray:none;stroke-dashoffset:0;stroke-opacity:1;paint-order:markers fill stroke"
       id="rect839-8"
       width="202.0547"
       height="39.454384"
       x="4.8059845"
       y="252.76331" />
    <g
       aria-label="ATLANTIC"
       style="font-style:normal;font-variant:normal;font-weight:bold;font-stretch:normal;font-size:7.32475328px;line-height:125%;font-family:'Square721 BdEx BT';-inkscape-font-specification:'Square721 BdEx BT Bold';letter-spacing:0px;word-spacing:0px;fill:#000000;fill-opacity:1;stroke:none;stroke-width:0.18311882px;stroke-linecap:butt;stroke-linejoin:miter;stroke-opacity:1"
       id="text837"
       transform="matrix(3.6150119,0,0,3.6150119,-232.77481,-386.55456)">
      <path
         d="m 70.63339,182.93305 h 2.045781 l -1.03362,-1.88484 z m -1.133763,2.16738 h -1.773964 l 2.907727,-5.32546 h 2.074393 l 2.854079,5.32546 h -1.784694 l -0.515021,-0.88698 h -3.243922 z"
         style="fill:#000000;stroke-width:0.18311882px"
         id="path867"
         inkscape:connector-curvature="0" />
      <path
         d="m 78.791477,185.10043 h -1.623749 v -4.02003 h -2.228184 v -1.30543 h 6.080118 v 1.30543 h -2.228185 z"
         style="fill:#000000;stroke-width:0.18311882px"
         id="path869"
         inkscape:connector-curvature="0" />
      <path
         d="m 83.48032,183.81288 h 3.544351 v 1.28755 h -5.171676 v -5.32546 h 1.627325 z"
         style="fill:#000000;stroke-width:0.18311882px"
         id="path871"
         inkscape:connector-curvature="0" />
      <path
         d="m 90.046848,182.93305 h 2.045781 l -1.03362,-1.88484 z m -1.133763,2.16738 h -1.773964 l 2.907727,-5.32546 h 2.074393 l 2.854079,5.32546 h -1.784694 l -0.515021,-0.88698 h -3.243922 z"
         style="fill:#000000;stroke-width:0.18311882px"
         id="path873"
         inkscape:connector-curvature="0" />
      <path
         d="m 102.72926,185.10043 h -2.38198 l -3.193849,-3.87339 v 3.87339 h -1.623749 v -5.32546 h 2.407012 l 3.172386,3.90558 v -3.90558 h 1.62018 z"
         style="fill:#000000;stroke-width:0.18311882px"
         id="path875"
         inkscape:connector-curvature="0" />
      <path
         d="m 107.27504,185.10043 h -1.62375 v -4.02003 h -2.22818 v -1.30543 h 6.08011 v 1.30543 h -2.22818 z"
         style="fill:#000000;stroke-width:0.18311882px"
         id="path877"
         inkscape:connector-curvature="0" />
      <path
         d="m 111.92096,185.10043 h -1.62732 v -5.32546 h 1.62732 z"
         style="fill:#000000;stroke-width:0.18311882px"
         id="path879"
         inkscape:connector-curvature="0" />
      <path
         d="m 118.1656,181.69557 v -0.0537 q 0,-0.31116 -0.20744,-0.45422 -0.20386,-0.14664 -0.65093,-0.14664 h -1.30186 q -0.83691,0 -1.07654,0.20386 -0.23605,0.20029 -0.23605,0.84407 v 0.74034 q 0,0.57582 0.26466,0.79042 0.26467,0.21459 1.04793,0.21459 h 0.94421 q 0.77611,0 1.01573,-0.15379 0.24321,-0.15737 0.24321,-0.5794 v -0.0572 h 1.64878 q 0,0.0107 0.004,0.0393 0.0107,0.23248 0.0107,0.34693 0,0.51144 -0.12876,0.84406 -0.12875,0.33262 -0.40414,0.53291 -0.26109,0.19313 -0.69743,0.27539 -0.43276,0.0823 -1.27325,0.0823 h -1.81688 q -0.83333,0 -1.22675,-0.0894 -0.39342,-0.0894 -0.67239,-0.30401 -0.32189,-0.25393 -0.46853,-0.62232 -0.14664,-0.37196 -0.14664,-0.93705 v -1.45207 q 0,-1.1445 0.54364,-1.59514 0.54363,-0.45422 1.97067,-0.45422 h 1.81688 q 0.87625,0 1.29113,0.0787 0.41488,0.0787 0.65451,0.26467 0.25393,0.19313 0.37196,0.52217 0.1216,0.32547 0.1216,0.81903 0,0.11802 -0.004,0.1824 0,0.0608 -0.007,0.11803 z"
         style="fill:#000000;stroke-width:0.18311882px"
         id="path881"
         inkscape:connector-curvature="0" />
    </g>
    <rect
       style="opacity:1;fill:none;fill-opacity:1;stroke:#000000;stroke-width:9.56471825;stroke-linecap:round;stroke-linejoin:miter;stroke-miterlimit:4;stroke-dasharray:none;stroke-dashoffset:0;stroke-opacity:1;paint-order:markers fill stroke"
       id="rect839"
       width="202.0547"
       height="139.20074"
       x="4.8059845"
       y="153.01686" />
  </g>
</svg>
